<svg height='100px' width='100px'  fill="#FFFFFF" xmlns="http://www.w3.org/2000/svg" data-name="Layer 1" viewBox="0 0 512 512" x="0px" y="0px"><title>Pie</title><path d="M470.722,303.1,402.23,251.734a243.742,243.742,0,0,0-292.481,0L41.244,303.1a28.094,28.094,0,0,0-11.207,22.347,39.482,39.482,0,1,0,78.963,0V324.23a7,7,0,0,1,14,0v1.218a39.5,39.5,0,1,0,79,0V324.23a7,7,0,0,1,14,0v1.218c0,21.825,18.176,39.58,40,39.58s40-17.755,40-39.58V324.23a7,7,0,0,1,14,0v1.218a39.5,39.5,0,1,0,79,0V324.23a7,7,0,0,1,14,0v1.218a39.481,39.481,0,1,0,78.962,0A28.128,28.128,0,0,0,470.722,303.1Zm-249.144-64.22-20,35a7,7,0,1,1-12.156-6.946l20-35a7,7,0,0,1,12.156,6.946ZM262,269.942a7,7,0,0,1-14,0v-35a7,7,0,0,1,14,0Zm56.973,6.544a7,7,0,0,1-9.551-2.605l-20-35a7,7,0,1,1,12.156-6.946l20,35A7,7,0,0,1,318.973,276.486Z"></path><path d="M442.318,379.035a53.612,53.612,0,0,1-46.58-27.158,53.531,53.531,0,0,1-93.159,0,53.529,53.529,0,0,1-93.158,0,53.531,53.531,0,0,1-93.159.006,53.613,53.613,0,0,1-46.58,27.159c-.723,0-1.441-.012-2.157-.041L80.9,420.16A63.265,63.265,0,0,0,140.247,462H371.753A63.267,63.267,0,0,0,431.1,420.155l13.466-41.141C443.82,379.045,443.072,379.035,442.318,379.035Z"></path><path d="M252.329,112.673C246.7,116.137,239,120.882,239,130.95s7.7,14.813,13.329,18.277c5,3.083,6.671,4.433,6.671,6.357a7,7,0,0,0,14,0c0-10.069-7.7-14.813-13.329-18.278-5-3.082-6.671-4.433-6.671-6.356s1.666-3.274,6.671-6.356C265.3,121.13,273,116.385,273,106.317s-7.7-14.812-13.33-18.276c-5.005-3.082-6.67-4.432-6.67-6.354s1.665-3.273,6.67-6.354C265.3,71.869,273,67.126,273,57.058a7,7,0,1,0-14,0c0,1.922-1.665,3.272-6.67,6.353C246.7,66.875,239,71.619,239,81.687s7.7,14.811,13.33,18.275c5,3.082,6.67,4.432,6.67,6.355S257.334,109.591,252.329,112.673Z"></path><path d="M202.329,112.673C196.7,116.137,189,120.882,189,130.95s7.7,14.813,13.329,18.277c5,3.083,6.671,4.433,6.671,6.357a7,7,0,0,0,14,0c0-10.069-7.7-14.813-13.329-18.278-5-3.082-6.671-4.433-6.671-6.356s1.666-3.274,6.671-6.356C215.3,121.13,223,116.385,223,106.317s-7.7-14.812-13.33-18.276c-5-3.082-6.67-4.432-6.67-6.354s1.665-3.273,6.67-6.354C215.3,71.869,223,67.126,223,57.058a7,7,0,1,0-14,0c0,1.922-1.665,3.272-6.67,6.353C196.7,66.875,189,71.619,189,81.687s7.7,14.811,13.33,18.275c5,3.082,6.67,4.432,6.67,6.355S207.334,109.591,202.329,112.673Z"></path><path d="M302.329,112.673C296.7,116.137,289,120.882,289,130.95s7.7,14.813,13.329,18.277c5,3.083,6.671,4.433,6.671,6.357a7,7,0,0,0,14,0c0-10.069-7.7-14.813-13.329-18.278-5-3.082-6.671-4.433-6.671-6.356s1.666-3.274,6.671-6.356C315.3,121.13,323,116.385,323,106.317s-7.7-14.812-13.33-18.276c-5-3.082-6.67-4.432-6.67-6.354s1.665-3.273,6.67-6.354C315.3,71.869,323,67.126,323,57.058a7,7,0,1,0-14,0c0,1.922-1.665,3.272-6.67,6.353C296.7,66.875,289,71.619,289,81.687s7.7,14.811,13.33,18.275c5,3.082,6.67,4.432,6.67,6.355S307.334,109.591,302.329,112.673Z"></path></svg>