<?xml version="1.0" standalone="no"?>
<!DOCTYPE svg PUBLIC "-//W3C//DTD SVG 20010904//EN"
 "http://www.w3.org/TR/2001/REC-SVG-20010904/DTD/svg10.dtd">
<svg version="1.0" xmlns="http://www.w3.org/2000/svg"
 width="1280.000000pt" height="872.000000pt" viewBox="0 0 1280.000000 872.000000"
 preserveAspectRatio="xMidYMid meet">
<g transform="translate(0.000000,872.000000) scale(0.100000,-0.100000)"
fill="#29331F" stroke="none">
<path d="M6152 7585 c-120 -466 -111 -444 -267 -627 -201 -235 -309 -342 -377
-372 -57 -24 -203 -121 -263 -172 l-30 -26 48 6 c26 3 95 22 154 41 58 19 108
34 110 32 2 -2 -20 -37 -48 -77 -58 -82 -57 -85 31 -97 128 -17 190 0 190 54
0 32 58 93 121 128 l52 28 -7 -29 c-3 -16 -9 -62 -12 -101 l-7 -73 -136 -133
c-242 -236 -331 -305 -444 -343 -40 -13 -132 -54 -205 -90 l-134 -65 -39 -85
c-22 -47 -37 -89 -34 -95 9 -14 63 -11 98 7 18 9 58 42 90 73 l58 56 -55 -95
c-31 -52 -56 -98 -56 -102 0 -8 39 4 77 24 12 6 42 37 67 69 26 33 50 59 56
59 5 0 10 -25 10 -55 0 -30 3 -55 8 -55 24 0 84 57 112 107 18 32 34 60 36 62
1 2 15 -6 30 -18 15 -11 31 -21 36 -21 6 0 42 25 80 55 95 74 100 69 49 -47
-15 -36 -27 -49 -48 -54 -110 -27 -186 -91 -356 -298 -96 -119 -231 -233 -429
-363 -54 -36 -98 -68 -98 -72 0 -28 72 -41 122 -22 13 5 60 41 104 80 45 39
84 71 88 71 3 0 -8 -21 -24 -47 -30 -47 -39 -93 -19 -93 16 0 73 62 114 122
23 35 55 64 111 98 43 27 80 47 81 46 2 -1 -6 -29 -17 -61 -11 -32 -20 -74
-20 -94 l1 -36 33 38 c19 21 51 69 71 108 24 45 46 74 66 84 33 18 34 16 15
-51 -33 -112 -15 -162 28 -79 l21 40 5 -58 c3 -31 7 -58 10 -59 3 -1 15 1 27
4 28 7 53 58 108 215 58 166 96 209 74 84 -10 -52 -9 -65 4 -79 8 -9 17 -26
19 -37 4 -16 8 -12 22 20 10 22 29 55 43 73 19 25 23 40 18 62 -11 52 1 33 30
-45 15 -41 31 -75 36 -75 9 0 35 84 42 135 2 17 5 0 6 -37 0 -37 -4 -79 -10
-95 -5 -15 -42 -61 -82 -101 -66 -67 -93 -84 -340 -219 -147 -80 -266 -147
-265 -149 2 -2 71 18 153 43 83 25 159 48 169 51 16 4 13 -3 -15 -38 -70 -89
-93 -106 -191 -138 -51 -17 -137 -40 -190 -50 -91 -19 -109 -27 -280 -127
-101 -59 -210 -127 -243 -150 -63 -45 -122 -102 -114 -109 3 -3 54 13 114 35
87 33 131 56 212 115 56 41 104 74 108 74 4 0 5 -18 3 -40 -2 -22 -1 -40 3
-40 4 0 50 25 104 55 53 30 98 55 100 55 2 0 -7 -19 -20 -42 -55 -96 -16 -131
60 -55 39 40 100 76 110 66 2 -3 1 -35 -3 -73 -7 -68 -8 -69 -42 -81 -38 -13
-66 -51 -76 -103 -8 -42 -17 -47 -94 -48 -69 -1 -180 -28 -218 -52 -20 -13
-25 -13 -33 -1 -7 11 -10 10 -15 -8 -4 -14 -35 -39 -84 -68 -43 -25 -84 -53
-91 -61 -7 -9 -31 -25 -53 -36 -53 -26 -184 -126 -196 -149 -16 -29 -12 -49
10 -49 11 0 20 -3 20 -7 0 -5 -42 -58 -93 -120 -95 -114 -153 -205 -142 -223
19 -31 97 8 145 72 l30 42 0 -40 c0 -50 23 -74 71 -74 43 0 103 48 146 115 15
25 36 45 45 45 10 0 20 10 24 25 5 22 52 70 60 62 1 -1 0 -22 -3 -46 -5 -37
-18 -55 -90 -131 -71 -75 -98 -95 -169 -130 -71 -34 -88 -47 -100 -75 -8 -19
-14 -39 -14 -45 0 -18 30 -10 55 15 29 28 31 25 10 -15 -20 -39 -4 -38 34 3
29 30 31 31 31 9 0 -19 3 -21 19 -13 10 6 22 22 25 37 6 21 9 24 22 13 12 -10
20 -7 44 16 19 18 30 23 29 14 -1 -30 -16 -50 -49 -67 -20 -10 -61 -52 -98
-99 -35 -45 -96 -110 -137 -144 -41 -34 -72 -65 -69 -70 10 -16 33 -9 67 21
l34 30 -4 -28 -4 -27 18 22 c10 12 26 33 36 47 10 14 27 31 39 37 20 11 20 9
14 -27 -6 -38 -6 -39 11 -18 10 12 26 36 36 54 22 40 30 35 17 -10 -10 -35 -5
-54 9 -31 6 9 10 7 14 -9 9 -34 23 -16 47 58 23 68 48 111 36 60 -3 -14 -3
-34 0 -43 5 -13 11 -9 27 17 l21 33 6 -25 c7 -26 13 -19 23 25 3 12 5 7 6 -12
1 -46 -50 -100 -167 -173 -53 -33 -94 -60 -91 -60 3 0 32 9 64 20 l57 20 -14
-22 c-24 -35 -59 -56 -121 -72 -72 -19 -257 -139 -257 -168 0 -13 71 23 118
60 30 24 42 29 42 18 0 -21 10 -20 40 4 32 25 43 25 30 0 -19 -35 0 -44 31
-14 16 15 31 25 34 22 10 -9 -7 -59 -21 -65 -7 -2 -16 -18 -19 -34 -6 -24 -11
-29 -38 -29 -42 0 -98 -30 -187 -99 -56 -43 -74 -63 -73 -79 2 -12 -15 -47
-37 -78 -40 -57 -49 -84 -30 -84 6 0 18 8 28 18 16 17 18 17 32 -1 21 -26 42
-14 85 49 49 71 54 73 42 18 -8 -36 -8 -47 2 -54 10 -6 7 -16 -13 -46 -14 -21
-26 -44 -26 -51 0 -20 27 -15 43 7 l14 21 6 -21 c7 -28 42 -25 64 5 10 14 31
42 46 63 l28 36 -7 -53 c-6 -44 -4 -53 7 -49 8 2 21 26 29 52 13 40 22 51 61
71 l46 23 -19 -36 c-20 -40 -23 -74 -9 -101 7 -12 -2 -51 -30 -134 -22 -64
-39 -129 -37 -145 l4 -27 16 35 c16 35 16 35 17 8 1 -16 5 -28 10 -28 16 0 29
25 50 97 12 40 24 73 27 73 2 0 2 -29 -2 -65 -8 -72 10 -94 20 -25 3 22 9 57
12 78 4 30 52 102 67 102 2 0 0 -23 -4 -52 -5 -29 -7 -54 -4 -56 2 -2 13 29
25 69 39 130 43 134 51 54 8 -73 -7 -335 -40 -710 -11 -122 -15 -211 -10 -213
5 -2 9 -9 9 -15 0 -8 23 -13 63 -15 54 -2 67 1 90 20 l25 23 -21 155 c-17 127
-21 203 -21 425 1 265 8 396 23 379 4 -5 15 -44 25 -86 10 -43 21 -80 26 -83
4 -2 15 10 23 27 l15 31 7 -46 c9 -60 25 -71 25 -17 0 52 14 44 29 -15 15 -58
35 -60 26 -2 -9 62 10 25 25 -48 7 -33 17 -71 23 -85 10 -25 11 -25 17 10 l7
35 13 -30 c22 -49 23 -7 2 88 -10 48 -15 92 -10 99 4 7 8 23 8 36 0 41 18 22
40 -43 23 -70 36 -81 46 -37 10 45 13 52 24 52 5 0 10 -8 10 -19 0 -30 21 -81
31 -75 5 3 9 17 9 32 l1 27 15 -27 c8 -16 19 -28 25 -28 11 0 3 37 -18 89 -25
59 -6 48 62 -36 15 -18 40 -42 56 -54 43 -30 38 -2 -11 60 -45 57 -47 61 -22
61 9 0 28 -18 42 -40 25 -40 67 -77 77 -66 13 13 -22 75 -65 116 -26 25 -64
67 -85 93 -30 36 -49 50 -84 60 -36 9 -49 19 -64 49 -10 20 -27 39 -37 42 -10
3 -24 22 -31 41 -7 21 -19 35 -29 35 -21 0 -72 46 -72 65 0 8 -13 21 -30 30
-33 17 -39 39 -14 49 35 13 51 3 96 -59 26 -36 52 -65 58 -65 5 0 10 19 10 42
0 39 1 41 16 26 9 -9 32 -42 51 -74 l34 -59 -4 43 c-4 30 -2 40 6 35 73 -43
86 -54 92 -85 12 -59 16 -68 32 -68 13 0 15 8 9 46 -7 55 3 51 42 -20 30 -52
54 -72 73 -60 5 3 9 12 9 21 0 12 7 9 25 -11 14 -15 29 -24 35 -21 13 8 -4 49
-52 120 -23 33 -40 69 -40 81 2 26 -33 64 -58 64 -23 0 -26 13 -6 29 8 6 19
25 26 41 10 25 15 28 31 19 15 -8 19 -6 19 9 0 10 -5 23 -11 29 -8 8 -5 29 11
80 35 103 112 275 106 233 -37 -239 -43 -301 -30 -334 20 -52 47 14 69 164 24
169 31 184 124 278 44 44 81 75 81 69 0 -7 -7 -52 -15 -102 -18 -106 -20 -169
-5 -143 6 9 35 90 66 180 63 182 102 268 113 249 5 -7 6 -68 3 -137 -5 -121
-1 -139 26 -112 17 17 16 -46 -7 -258 -37 -336 -51 -519 -55 -719 -3 -110 -15
-317 -26 -460 -29 -357 -29 -358 -4 -392 18 -25 96 -74 162 -103 52 -22 134
-1 147 39 3 10 26 26 51 36 46 17 46 18 40 55 -3 21 -19 143 -36 271 -63 493
-74 690 -52 939 7 74 12 203 12 285 0 130 34 532 46 544 13 14 35 -41 74 -184
23 -88 52 -182 63 -208 20 -49 40 -57 45 -18 2 12 10 25 17 27 8 3 22 29 31
57 l18 52 13 -45 c8 -25 12 -56 9 -70 -2 -14 1 -32 8 -40 7 -8 18 -35 25 -59
16 -57 31 -38 31 40 0 33 6 63 15 75 14 18 14 18 15 -4 0 -15 7 -26 20 -29 15
-4 25 -24 41 -77 21 -71 34 -96 50 -96 17 0 20 44 9 131 -6 51 -9 94 -6 96 2
3 20 -44 39 -103 26 -79 32 -112 25 -123 -6 -9 -35 -35 -64 -59 -59 -47 -79
-73 -89 -114 -16 -63 64 -15 125 75 26 39 47 47 56 22 4 -9 -11 -36 -38 -68
-88 -102 -82 -130 11 -57 l51 40 14 -34 c15 -37 38 -56 44 -38 2 7 10 12 17
12 8 0 19 9 25 20 12 22 30 27 30 8 0 -7 4 -19 9 -27 15 -24 39 4 46 53 4 24
11 49 15 56 15 24 50 -17 50 -56 0 -68 34 -44 65 46 28 82 54 116 55 73 1 -10
7 -36 15 -57 13 -36 12 -47 -11 -130 -36 -137 -29 -209 10 -101 l15 40 0 -47
c1 -49 12 -66 29 -45 5 6 22 59 37 117 34 130 46 154 38 74 -8 -85 9 -89 38
-7 31 85 49 93 49 22 0 -67 14 -55 32 26 l14 60 24 -48 c13 -26 27 -44 32 -39
4 4 22 60 40 125 18 64 36 117 39 117 13 0 19 -49 31 -245 16 -267 14 -659 -5
-935 -9 -123 -14 -227 -11 -230 3 -3 42 -5 87 -5 82 0 149 21 160 48 2 7 -8
134 -24 282 -16 149 -33 353 -39 455 -5 102 -17 244 -25 315 -17 155 -18 188
-5 180 6 -4 10 18 10 59 0 62 9 81 26 54 4 -6 24 -59 45 -117 38 -106 48 -105
30 3 l-8 49 52 -54 c47 -49 53 -60 59 -114 10 -80 25 -135 36 -135 12 0 12 89
0 150 -4 25 -7 46 -5 48 2 2 17 -34 34 -80 65 -173 93 -207 107 -132 l7 36 18
-41 c19 -44 39 -54 39 -20 0 28 -53 183 -96 279 -29 66 -31 77 -18 91 31 34 9
140 -37 174 -26 19 -21 18 61 -17 78 -33 78 -33 95 -93 9 -29 22 -59 30 -65
34 -28 45 23 21 93 -8 21 -11 37 -7 35 4 -2 38 -38 75 -80 36 -42 75 -80 87
-83 25 -8 49 11 49 38 0 19 3 18 33 -11 34 -33 67 -42 67 -18 0 20 -79 123
-138 180 l-51 49 26 14 c14 7 27 13 28 13 2 0 11 -24 19 -54 16 -55 37 -82 56
-71 14 9 13 45 -5 94 -8 22 -11 41 -7 40 4 0 34 -32 67 -71 75 -88 96 -103
124 -88 12 6 21 20 21 31 0 19 3 18 35 -10 20 -17 42 -31 50 -31 33 0 15 32
-100 176 -17 21 -17 26 -5 34 21 13 -17 50 -125 122 -126 83 -184 109 -254
115 -41 4 -61 10 -61 19 0 28 -24 63 -46 68 -20 5 -24 13 -24 46 0 22 4 40 10
40 5 0 25 -13 43 -30 19 -16 40 -30 46 -30 16 0 13 32 -6 60 -16 23 -14 23 40
-8 67 -38 67 -38 67 -12 0 11 2 20 5 20 3 0 31 -18 61 -41 30 -22 85 -51 122
-65 l67 -25 -33 34 c-19 19 -91 68 -160 110 -98 57 -142 77 -192 87 -82 15
-93 21 -119 65 -23 40 -20 41 39 20 24 -8 45 -14 47 -12 1 2 -29 21 -68 43
-60 32 -82 53 -133 119 -56 74 -61 84 -61 134 -2 67 11 53 50 -57 15 -42 32
-83 37 -89 19 -24 38 -14 39 20 0 30 1 31 11 10 24 -49 36 -17 19 45 -16 55
12 39 51 -29 15 -25 35 -52 44 -60 19 -15 19 -21 -3 70 l-6 24 42 -24 c23 -13
58 -45 77 -71 39 -56 75 -69 49 -18 -23 44 -19 44 40 -5 55 -44 96 -57 111
-33 4 7 0 16 -11 22 -80 47 -238 178 -285 238 -75 94 -131 144 -177 158 -30 9
-41 20 -55 51 -20 48 -7 50 41 9 32 -27 37 -29 57 -15 21 13 23 12 34 -16 12
-27 53 -69 70 -69 3 0 5 13 2 30 -6 39 11 38 38 0 20 -29 80 -69 80 -54 0 4
-12 28 -27 53 l-27 46 38 -32 c24 -22 47 -33 66 -33 35 0 36 2 7 60 -18 36
-33 50 -87 77 -36 18 -90 42 -119 54 -73 27 -127 69 -242 186 -94 95 -97 100
-101 151 l-5 52 26 -16 c44 -28 71 -57 71 -75 0 -26 17 -33 79 -31 72 2 81 12
47 57 -16 20 -26 38 -25 40 2 1 31 -6 64 -16 33 -10 69 -19 80 -19 17 1 14 5
-15 30 -19 16 -66 46 -103 67 -48 26 -89 61 -141 118 -166 183 -181 210 -226
394 -25 101 -30 102 -53 11 -7 -28 -17 -50 -23 -50 -5 1 -31 15 -59 32 l-50
31 30 10 c133 43 -5 126 -163 97 -54 -9 -64 -8 -93 9 -52 30 -208 88 -358 131
-94 27 -142 46 -160 64 -15 15 -32 26 -39 26 -7 0 -12 10 -12 23 0 26 -46 102
-78 131 -33 28 -27 36 26 36 68 0 109 -14 161 -57 87 -72 86 -72 47 6 -29 57
-35 76 -25 87 20 25 36 16 106 -62 46 -52 84 -84 118 -100 27 -13 51 -22 53
-20 2 2 -17 45 -42 95 -26 50 -42 91 -37 91 31 0 100 -37 144 -76 70 -63 137
-92 137 -59 0 17 -43 90 -60 100 -5 3 -10 11 -10 16 0 6 20 -6 44 -26 50 -40
92 -49 109 -23 10 15 -3 33 -91 121 l-103 103 -167 49 c-197 57 -264 90 -475
231 -175 118 -227 161 -227 192 0 22 -8 22 142 3 l57 -8 30 71 c16 39 33 72
38 73 5 2 30 -29 56 -69 73 -114 77 -119 114 -135 61 -25 65 -17 33 80 -15 48
-26 87 -23 87 3 0 39 -28 82 -62 72 -58 140 -97 169 -98 8 0 -11 30 -42 67
-31 37 -54 68 -52 71 2 2 38 -4 80 -12 98 -21 166 -21 166 -1 0 20 -29 33 -70
32 -49 -1 -101 27 -176 94 -85 77 -127 104 -195 124 -71 20 -156 71 -258 155
-66 55 -87 79 -129 155 -90 162 -113 228 -122 345 -8 98 -34 200 -65 260 l-13
25 -10 -40z m627 -2404 c15 -11 42 -47 60 -80 18 -34 34 -61 36 -61 2 0 20 29
40 65 20 36 41 67 46 70 5 4 29 -8 54 -25 41 -28 45 -35 45 -70 0 -38 26 -80
48 -80 16 0 42 36 48 68 4 18 9 32 13 32 3 0 15 -21 25 -48 11 -26 29 -67 40
-92 l21 -45 5 100 5 100 38 -61 c20 -34 37 -68 37 -77 0 -15 64 -77 79 -77 5
0 -2 42 -15 93 -13 50 -24 96 -24 101 0 5 36 -25 80 -68 83 -81 109 -91 121
-46 5 21 7 22 13 8 12 -26 -59 -152 -108 -191 -22 -18 -47 -37 -53 -41 -7 -4
-77 18 -155 48 -79 30 -207 74 -285 97 -126 38 -143 45 -143 64 0 49 -92 156
-152 177 -50 18 -27 74 25 64 16 -3 41 -15 56 -25z m521 -645 c0 -3 -4 -16
-10 -30 -8 -23 -7 -26 10 -26 11 0 29 9 40 20 28 28 54 13 73 -45 16 -44 15
-45 -10 -65 -24 -19 -28 -19 -47 -5 -12 9 -33 23 -48 33 -14 9 -29 28 -32 43
-3 15 -8 38 -12 53 -5 22 -3 26 15 26 12 0 21 -2 21 -4z m-527 -379 c3 -7 46
-65 96 -130 50 -64 91 -117 91 -119 0 -2 -11 -4 -25 -4 -72 -5 -98 -31 -54
-55 21 -11 20 -11 -10 -30 -42 -25 -46 -24 -62 14 -7 17 -28 46 -46 63 -18 17
-33 41 -33 52 0 38 -12 52 -81 89 -41 22 -69 44 -69 53 0 31 25 49 85 64 78
18 102 19 108 3z m358 -154 c37 -42 32 -49 -46 -69 -22 -6 -25 -3 -25 24 0 17
4 42 10 57 8 21 13 24 28 16 9 -5 24 -17 33 -28z m245 -155 c8 -12 -21 -38
-43 -38 -13 0 -18 32 -6 43 10 11 41 8 49 -5z m-139 -43 c10 -21 23 -34 32
-33 9 2 16 -3 15 -9 -1 -7 -2 -22 -2 -32 -2 -16 -23 -26 -104 -51 -109 -34
-152 -34 -182 -1 -15 17 -15 21 11 70 l28 52 5 -53 6 -53 18 40 c24 53 25 53
46 25 15 -20 20 -22 34 -11 9 7 16 25 16 39 0 25 24 51 48 52 7 0 20 -16 29
-35z m-272 -54 c-7 -33 -12 -36 -35 -21 -12 7 -11 13 9 34 29 31 35 28 26 -13z
m-1501 -266 c-4 -8 -12 -15 -19 -15 -33 0 -78 -86 -94 -178 -15 -86 -3 -124
47 -149 2 0 -13 -39 -33 -85 -21 -45 -41 -93 -46 -106 -9 -22 -9 -23 -33 -5
-21 16 -22 19 -7 30 25 18 -1 36 -56 39 -28 1 -83 17 -132 37 -46 20 -92 38
-103 40 -10 3 -25 21 -33 40 -8 20 -19 38 -25 42 -5 3 -10 11 -10 16 0 15 53
-1 79 -25 l23 -21 -7 25 c-11 37 -11 38 0 40 6 2 17 -12 26 -31 17 -34 69 -60
69 -34 0 7 6 18 14 24 10 9 16 8 26 -4 19 -23 43 -20 30 4 -15 30 -12 36 9 17
33 -30 34 1 1 43 -29 36 -31 41 -21 79 16 59 37 77 126 112 44 17 100 42 125
55 25 13 46 24 47 25 1 0 0 -7 -3 -15z m-381 -130 c-15 -46 -19 -50 -48 -39
-14 6 -10 13 21 45 21 22 39 39 40 39 2 0 -4 -20 -13 -45z m1920 -313 c-6 -34
-5 -36 11 -23 20 17 19 19 45 -53 20 -53 20 -61 7 -81 -10 -15 -33 -27 -68
-35 -29 -7 -55 -13 -58 -12 -3 0 -10 18 -16 39 -9 33 -8 45 13 88 12 27 23 58
23 67 0 9 5 29 10 43 8 22 13 25 24 15 10 -8 13 -23 9 -48z m-2001 -100 l16
-34 16 31 c15 27 19 29 36 19 11 -7 20 -23 20 -35 0 -27 18 -40 26 -19 9 24
23 19 30 -9 9 -35 27 -31 22 5 -6 42 6 37 25 -10 8 -22 20 -40 26 -40 6 0 9 6
7 13 -3 6 -7 26 -11 42 l-6 30 35 -36 36 -36 -16 -46 -15 -45 -72 33 c-40 18
-91 39 -115 46 -33 9 -46 20 -59 46 -9 19 -27 41 -39 50 -30 19 -31 35 -1 31
13 -2 29 -16 39 -36z m203 -262 c3 -6 3 -19 0 -31 -5 -15 -10 -17 -20 -9 -22
19 -26 50 -5 50 11 0 22 -5 25 -10z m77 -77 c-2 -24 -8 -41 -13 -38 -4 3 -6
11 -4 18 2 7 6 25 10 41 9 40 13 29 7 -21z m1648 -41 c-7 -13 -9 -8 -9 23 0
35 1 37 10 17 6 -15 5 -30 -1 -40z m-2681 -301 c10 -7 6 -16 -17 -42 l-30 -34
11 43 c12 44 14 47 36 33z"/>
</g>
</svg>
